<?xml version="1.0" standalone="no"?>
<!DOCTYPE svg PUBLIC "-//W3C//DTD SVG 20010904//EN"
 "http://www.w3.org/TR/2001/REC-SVG-20010904/DTD/svg10.dtd">
<svg version="1.0" xmlns="http://www.w3.org/2000/svg"
 width="725.000000pt" height="725.000000pt" viewBox="0 0 725.000000 725.000000"
 preserveAspectRatio="xMidYMid meet">
<metadata>
Created by potrace 1.11, written by Peter Selinger 2001-2013
</metadata>
<g transform="translate(0.000000,725.000000) scale(0.100000,-0.100000)"
fill="#000000" stroke="none">
<path d="M2656 6243 c-90 -15 -214 -76 -287 -142 -35 -31 -99 -112 -165 -208
-138 -201 -213 -277 -337 -338 -169 -82 -123 -78 -927 -85 l-715 -5 -67 -33
c-43 -21 -83 -51 -112 -83 l-46 -51 0 -808 0 -808 43 -21 c58 -28 103 -26 159
7 26 15 129 97 229 182 440 375 795 614 1244 835 497 245 928 375 1465 442
204 25 733 25 940 0 327 -39 619 -105 921 -207 670 -225 1366 -648 1917 -1164
52 -49 114 -97 139 -108 l44 -20 47 24 c29 14 54 36 67 58 20 34 20 51 20 770
0 703 -1 738 -20 795 -25 78 -88 143 -165 170 -52 18 -96 20 -780 25 -648 5
-731 8 -784 23 -85 25 -173 70 -237 121 -57 45 -72 63 -239 302 -109 157 -183
230 -276 274 -131 63 -109 62 -1103 64 -659 1 -923 -2 -975 -11z"/>
<path d="M367 5996 c-71 -26 -107 -76 -107 -149 0 -59 32 -106 95 -137 l50
-25 465 0 c464 0 465 0 507 23 119 63 129 210 19 274 l-41 23 -475 2 c-383 2
-482 0 -513 -11z"/>
<path d="M3440 4854 c-14 -2 -68 -12 -120 -20 -132 -23 -280 -73 -411 -140
-448 -229 -732 -675 -768 -1204 -31 -461 114 -866 418 -1170 214 -214 475
-350 783 -412 144 -28 394 -31 533 -5 481 89 863 365 1070 771 109 216 145
366 152 646 6 234 -10 366 -68 546 -138 435 -476 779 -903 918 -161 53 -257
67 -466 71 -107 2 -206 2 -220 -1z m454 -400 c135 -39 255 -92 345 -153 135
-92 273 -263 367 -456 67 -138 70 -185 14 -248 -35 -40 -102 -63 -155 -53 -50
10 -90 55 -170 192 -53 90 -90 140 -155 205 -117 118 -168 145 -423 224 -103
31 -152 68 -167 126 -30 110 71 220 185 203 22 -4 93 -22 159 -40z"/>
<path d="M42 3062 l-42 -16 0 -917 c0 -505 3 -919 8 -921 4 -1 22 -22 41 -46
41 -53 104 -96 179 -125 l57 -22 3350 0 3350 0 55 22 c63 26 122 79 151 134
46 91 50 181 47 1004 -3 711 -4 773 -21 815 -39 97 -87 113 -174 58 -29 -18
-109 -79 -180 -134 -596 -472 -672 -528 -925 -682 -455 -275 -971 -485 -1440
-586 -315 -68 -448 -81 -843 -81 -364 0 -425 4 -715 51 -899 143 -1782 588
-2575 1297 -131 118 -208 168 -254 166 -15 0 -45 -8 -69 -17z"/>
</g>
</svg>
