<?xml version="1.0" encoding="utf-8"?>
<!-- Generator: Adobe Illustrator 18.1.1, SVG Export Plug-In . SVG Version: 6.00 Build 0)  -->
<svg version="1.1" id="Layer_1" xmlns="http://www.w3.org/2000/svg" xmlns:xlink="http://www.w3.org/1999/xlink" x="0px" y="0px"
	 viewBox="0 0 960 560" enable-background="new 0 0 960 560" xml:space="preserve">
<g>
	<path fill="#7C7C7C" d="M407,198c2.2-3.2,5.1-4.3,9-4.2c8.7,0.2,17.3-0.1,26,0.1c7.3,0.2,12.9-2.4,16.8-8.7
		c0.7-1.1,1.5-2.2,2.2-3.3c3.2-4.8,7.6-7,13.5-6.9c13,0.2,26,0.2,39,0c5.5-0.1,9.7,1.9,12.7,6.4c1,1.5,2.2,2.9,3.1,4.5
		c3.3,5.6,8.4,7.9,14.6,7.9c9.3,0.1,18.7,0,28,0c6.4,0,8.7,2.3,8.8,8.7c0.1,9.7,0.1,19.3,0,29c0,2.3,0.3,5.1-2.1,6.2
		c-2.5,1.2-4.3-1.1-6-2.6c-10.1-9.3-21.3-17.1-33.7-23c-12.6-5.9-25.8-9.6-39.8-10.3c-26.7-1.5-50,7.5-71.2,22.7
		c-5,3.6-9.6,7.7-14.3,11.7c-2.2,1.8-4.2,2.6-6.7,0.8C407,224,407,211,407,198z"/>
	<path fill="#777777" d="M407,252c2.8-1.8,4.8-0.6,7,1.4c10.6,9.7,22.2,18,35.3,24.1c11.1,5.1,22.7,8.4,34.9,9.7
		c24.6,2.6,46.8-4.2,67.3-17.1c7.4-4.7,14.1-10.5,21.1-15.8c0.8-0.6,1.5-1.3,2.3-1.9c3.2-2.4,5-1.7,5.8,2.4c0.2,1.1,0.2,2.3,0.2,3.5
		c0,10.8,0,21.6,0,32.5c0,1.6-0.2,3.3-0.6,4.9c-0.6,3.2-2.9,4.7-5.9,5.3c-1.1,0.2-2.3,0.1-3.5,0.1c-51.3,0-102.6,0-153.8,0.1
		c-4.4,0-7.8-1.2-10-5.1C407,281.3,407,266.7,407,252z"/>
	<path fill="#1E1E1E" d="M493.8,280.1c-19-0.2-35.8-14.6-35.6-36.1c0.1-19.5,14.3-35.4,35.6-35.6c20.5-0.1,35.7,14.9,35.8,35.8
		C529.7,266.2,512.4,280,493.8,280.1z M496.1,217.2c-2,0.2-3.5,1.1-4,3.1c-0.5,2.1,0.5,3.6,2.3,4.4c1,0.5,2.2,0.8,3.3,1.1
		c5.5,1.3,9.4,4.6,12.1,9.5c0.6,1.2,1.3,2.3,2.1,3.4c1.3,1.7,3,2,4.9,1.1c1.9-0.8,2.6-2.9,1.6-5.1c-1.9-4.2-4.2-8.2-7.8-11.4
		C506.4,219.7,501.4,218.3,496.1,217.2z"/>
	<path fill="#777777" d="M427.9,180.9c3.3,0,6.7-0.1,10,0c2.8,0.1,4.5,1.5,4.6,3.6c0.1,2.2-1.8,4.3-4.6,4.4
		c-6.7,0.2-13.3,0.1-20,0.1c-0.5,0-1-0.1-1.5-0.3c-1.9-0.6-3.3-1.6-3.3-3.8c0-2,1.4-3.7,3.8-3.8"/>
</g>
</svg>
